<?xml version="1.0" standalone="no"?>
<!DOCTYPE svg PUBLIC "-//W3C//DTD SVG 20010904//EN"
 "http://www.w3.org/TR/2001/REC-SVG-20010904/DTD/svg10.dtd">
<svg version="1.0" xmlns="http://www.w3.org/2000/svg"
 width="255.000000pt" height="359.000000pt" viewBox="0 0 255.000000 359.000000"
 preserveAspectRatio="xMidYMid meet">
<g transform="translate(0.000000,359.000000) scale(0.050000,-0.050000)"
fill="#093534" stroke="none">
<path d="M905 6662 c-144 -49 -282 -171 -355 -313 l-60 -116 -6 -1800 c-6
-1984 -11 -1885 119 -2082 174 -262 226 -272 1437 -269 1367 3 1637 44 2043
311 716 471 736 1607 37 2039 l-117 72 123 116 c231 217 331 453 333 790 3
686 -442 1125 -1279 1259 -306 50 -2129 44 -2275 -7z m1979 -924 c562 -119
531 -760 -42 -855 -80 -13 -361 -23 -661 -23 l-521 0 0 450 0 450 559 0 c337
0 601 -9 665 -22z m246 -1795 c223 -83 322 -234 306 -472 -23 -368 -244 -451
-1198 -451 l-578 0 0 491 0 492 675 -8 c638 -7 681 -9 795 -52z"/>
<path d="M2208 1521 c-109 -56 -381 -309 -452 -420 -193 -305 134 -766 564
-796 339 -23 689 289 689 616 0 391 -491 758 -801 600z"/>
</g>
</svg>
